<svg width="139" height="68" viewBox="0 0 139 68" fill="none" xmlns="http://www.w3.org/2000/svg">
<path d="M5.46875 44.9375V62H1.95312V44.9375H5.46875ZM12.2656 52.2266V54.9688H4.50781V52.2266H12.2656ZM13.0859 44.9375V47.6914H4.50781V44.9375H13.0859ZM18.4766 49.3203V62H15.0898V49.3203H18.4766ZM14.8789 46.0156C14.8789 45.5234 15.0508 45.1172 15.3945 44.7969C15.7383 44.4766 16.1992 44.3164 16.7773 44.3164C17.3477 44.3164 17.8047 44.4766 18.1484 44.7969C18.5 45.1172 18.6758 45.5234 18.6758 46.0156C18.6758 46.5078 18.5 46.9141 18.1484 47.2344C17.8047 47.5547 17.3477 47.7148 16.7773 47.7148C16.1992 47.7148 15.7383 47.5547 15.3945 47.2344C15.0508 46.9141 14.8789 46.5078 14.8789 46.0156ZM24.5703 52.0273V62H21.1953V49.3203H24.3594L24.5703 52.0273ZM24.0781 55.2148H23.1641C23.1641 54.2773 23.2852 53.4336 23.5273 52.6836C23.7695 51.9258 24.1094 51.2812 24.5469 50.75C24.9844 50.2109 25.5039 49.8008 26.1055 49.5195C26.7148 49.2305 27.3945 49.0859 28.1445 49.0859C28.7383 49.0859 29.2812 49.1719 29.7734 49.3438C30.2656 49.5156 30.6875 49.7891 31.0391 50.1641C31.3984 50.5391 31.6719 51.0352 31.8594 51.6523C32.0547 52.2695 32.1523 53.0234 32.1523 53.9141V62H28.7539V53.9023C28.7539 53.3398 28.6758 52.9023 28.5195 52.5898C28.3633 52.2773 28.1328 52.0586 27.8281 51.9336C27.5312 51.8008 27.1641 51.7344 26.7266 51.7344C26.2734 51.7344 25.8789 51.8242 25.543 52.0039C25.2148 52.1836 24.9414 52.4336 24.7227 52.7539C24.5117 53.0664 24.3516 53.4336 24.2422 53.8555C24.1328 54.2773 24.0781 54.7305 24.0781 55.2148ZM41.5625 59.1406V53.4922C41.5625 53.0859 41.4961 52.7383 41.3633 52.4492C41.2305 52.1523 41.0234 51.9219 40.7422 51.7578C40.4688 51.5938 40.1133 51.5117 39.6758 51.5117C39.3008 51.5117 38.9766 51.5781 38.7031 51.7109C38.4297 51.8359 38.2188 52.0195 38.0703 52.2617C37.9219 52.4961 37.8477 52.7734 37.8477 53.0938H34.4727C34.4727 52.5547 34.5977 52.043 34.8477 51.5586C35.0977 51.0742 35.4609 50.6484 35.9375 50.2812C36.4141 49.9062 36.9805 49.6133 37.6367 49.4023C38.3008 49.1914 39.043 49.0859 39.8633 49.0859C40.8477 49.0859 41.7227 49.25 42.4883 49.5781C43.2539 49.9062 43.8555 50.3984 44.293 51.0547C44.7383 51.7109 44.9609 52.5312 44.9609 53.5156V58.9414C44.9609 59.6367 45.0039 60.207 45.0898 60.6523C45.1758 61.0898 45.3008 61.4727 45.4648 61.8008V62H42.0547C41.8906 61.6562 41.7656 61.2266 41.6797 60.7109C41.6016 60.1875 41.5625 59.6641 41.5625 59.1406ZM42.0078 54.2773L42.0312 56.1875H40.1445C39.6992 56.1875 39.3125 56.2383 38.9844 56.3398C38.6562 56.4414 38.3867 56.5859 38.1758 56.7734C37.9648 56.9531 37.8086 57.1641 37.707 57.4062C37.6133 57.6484 37.5664 57.9141 37.5664 58.2031C37.5664 58.4922 37.6328 58.7539 37.7656 58.9883C37.8984 59.2148 38.0898 59.3945 38.3398 59.5273C38.5898 59.6523 38.8828 59.7148 39.2188 59.7148C39.7266 59.7148 40.168 59.6133 40.543 59.4102C40.918 59.207 41.207 58.957 41.4102 58.6602C41.6211 58.3633 41.7305 58.082 41.7383 57.8164L42.6289 59.2461C42.5039 59.5664 42.332 59.8984 42.1133 60.2422C41.9023 60.5859 41.6328 60.9102 41.3047 61.2148C40.9766 61.5117 40.582 61.7578 40.1211 61.9531C39.6602 62.1406 39.1133 62.2344 38.4805 62.2344C37.6758 62.2344 36.9453 62.0742 36.2891 61.7539C35.6406 61.4258 35.125 60.9766 34.7422 60.4062C34.3672 59.8281 34.1797 59.1719 34.1797 58.4375C34.1797 57.7734 34.3047 57.1836 34.5547 56.668C34.8047 56.1523 35.1719 55.7188 35.6562 55.3672C36.1484 55.0078 36.7617 54.7383 37.4961 54.5586C38.2305 54.3711 39.082 54.2773 40.0508 54.2773H42.0078ZM50.8672 52.0273V62H47.4922V49.3203H50.6562L50.8672 52.0273ZM50.375 55.2148H49.4609C49.4609 54.2773 49.582 53.4336 49.8242 52.6836C50.0664 51.9258 50.4062 51.2812 50.8438 50.75C51.2812 50.2109 51.8008 49.8008 52.4023 49.5195C53.0117 49.2305 53.6914 49.0859 54.4414 49.0859C55.0352 49.0859 55.5781 49.1719 56.0703 49.3438C56.5625 49.5156 56.9844 49.7891 57.3359 50.1641C57.6953 50.5391 57.9688 51.0352 58.1562 51.6523C58.3516 52.2695 58.4492 53.0234 58.4492 53.9141V62H55.0508V53.9023C55.0508 53.3398 54.9727 52.9023 54.8164 52.5898C54.6602 52.2773 54.4297 52.0586 54.125 51.9336C53.8281 51.8008 53.4609 51.7344 53.0234 51.7344C52.5703 51.7344 52.1758 51.8242 51.8398 52.0039C51.5117 52.1836 51.2383 52.4336 51.0195 52.7539C50.8086 53.0664 50.6484 53.4336 50.5391 53.8555C50.4297 54.2773 50.375 54.7305 50.375 55.2148ZM66.2539 59.5977C66.668 59.5977 67.0352 59.5195 67.3555 59.3633C67.6758 59.1992 67.9258 58.9727 68.1055 58.6836C68.293 58.3867 68.3906 58.0391 68.3984 57.6406H71.5742C71.5664 58.5312 71.3281 59.3242 70.8594 60.0195C70.3906 60.707 69.7617 61.25 68.9727 61.6484C68.1836 62.0391 67.3008 62.2344 66.3242 62.2344C65.3398 62.2344 64.4805 62.0703 63.7461 61.7422C63.0195 61.4141 62.4141 60.9609 61.9297 60.3828C61.4453 59.7969 61.082 59.1172 60.8398 58.3438C60.5977 57.5625 60.4766 56.7266 60.4766 55.8359V55.4961C60.4766 54.5977 60.5977 53.7617 60.8398 52.9883C61.082 52.207 61.4453 51.5273 61.9297 50.9492C62.4141 50.3633 63.0195 49.9062 63.7461 49.5781C64.4727 49.25 65.3242 49.0859 66.3008 49.0859C67.3398 49.0859 68.25 49.2852 69.0312 49.6836C69.8203 50.082 70.4375 50.6523 70.8828 51.3945C71.3359 52.1289 71.5664 53 71.5742 54.0078H68.3984C68.3906 53.5859 68.3008 53.2031 68.1289 52.8594C67.9648 52.5156 67.7227 52.2422 67.4023 52.0391C67.0898 51.8281 66.7031 51.7227 66.2422 51.7227C65.75 51.7227 65.3477 51.8281 65.0352 52.0391C64.7227 52.2422 64.4805 52.5234 64.3086 52.8828C64.1367 53.2344 64.0156 53.6367 63.9453 54.0898C63.8828 54.5352 63.8516 55.0039 63.8516 55.4961V55.8359C63.8516 56.3281 63.8828 56.8008 63.9453 57.2539C64.0078 57.707 64.125 58.1094 64.2969 58.4609C64.4766 58.8125 64.7227 59.0898 65.0352 59.293C65.3477 59.4961 65.7539 59.5977 66.2539 59.5977ZM79.3672 62.2344C78.3828 62.2344 77.5 62.0781 76.7188 61.7656C75.9375 61.4453 75.2734 61.0039 74.7266 60.4414C74.1875 59.8789 73.7734 59.2266 73.4844 58.4844C73.1953 57.7344 73.0508 56.9375 73.0508 56.0938V55.625C73.0508 54.6641 73.1875 53.7852 73.4609 52.9883C73.7344 52.1914 74.125 51.5 74.6328 50.9141C75.1484 50.3281 75.7734 49.8789 76.5078 49.5664C77.2422 49.2461 78.0703 49.0859 78.9922 49.0859C79.8906 49.0859 80.6875 49.2344 81.3828 49.5312C82.0781 49.8281 82.6602 50.25 83.1289 50.7969C83.6055 51.3438 83.9648 52 84.207 52.7656C84.4492 53.5234 84.5703 54.3672 84.5703 55.2969V56.7031H74.4922V54.4531H81.2539V54.1953C81.2539 53.7266 81.168 53.3086 80.9961 52.9414C80.832 52.5664 80.582 52.2695 80.2461 52.0508C79.9102 51.832 79.4805 51.7227 78.957 51.7227C78.5117 51.7227 78.1289 51.8203 77.8086 52.0156C77.4883 52.2109 77.2266 52.4844 77.0234 52.8359C76.8281 53.1875 76.6797 53.6016 76.5781 54.0781C76.4844 54.5469 76.4375 55.0625 76.4375 55.625V56.0938C76.4375 56.6016 76.5078 57.0703 76.6484 57.5C76.7969 57.9297 77.0039 58.3008 77.2695 58.6133C77.543 58.9258 77.8711 59.168 78.2539 59.3398C78.6445 59.5117 79.0859 59.5977 79.5781 59.5977C80.1875 59.5977 80.7539 59.4805 81.2773 59.2461C81.8086 59.0039 82.2656 58.6406 82.6484 58.1562L84.2891 59.9375C84.0234 60.3203 83.6602 60.6875 83.1992 61.0391C82.7461 61.3906 82.1992 61.6797 81.5586 61.9062C80.918 62.125 80.1875 62.2344 79.3672 62.2344ZM102.57 56.3398H106.074C106.004 57.4883 105.688 58.5078 105.125 59.3984C104.57 60.2891 103.793 60.9844 102.793 61.4844C101.801 61.9844 100.605 62.2344 99.207 62.2344C98.1133 62.2344 97.1328 62.0469 96.2656 61.6719C95.3984 61.2891 94.6562 60.7422 94.0391 60.0312C93.4297 59.3203 92.9648 58.4609 92.6445 57.4531C92.3242 56.4453 92.1641 55.3164 92.1641 54.0664V52.8828C92.1641 51.6328 92.3281 50.5039 92.6562 49.4961C92.9922 48.4805 93.4688 47.6172 94.0859 46.9062C94.7109 46.1953 95.457 45.6484 96.3242 45.2656C97.1914 44.8828 98.1602 44.6914 99.2305 44.6914C100.652 44.6914 101.852 44.9492 102.828 45.4648C103.812 45.9805 104.574 46.6914 105.113 47.5977C105.66 48.5039 105.988 49.5352 106.098 50.6914H102.582C102.543 50.0039 102.406 49.4219 102.172 48.9453C101.938 48.4609 101.582 48.0977 101.105 47.8555C100.637 47.6055 100.012 47.4805 99.2305 47.4805C98.6445 47.4805 98.1328 47.5898 97.6953 47.8086C97.2578 48.0273 96.8906 48.3594 96.5938 48.8047C96.2969 49.25 96.0742 49.8125 95.9258 50.4922C95.7852 51.1641 95.7148 51.9531 95.7148 52.8594V54.0664C95.7148 54.9492 95.7812 55.7266 95.9141 56.3984C96.0469 57.0625 96.25 57.625 96.5234 58.0859C96.8047 58.5391 97.1641 58.8828 97.6016 59.1172C98.0469 59.3438 98.582 59.457 99.207 59.457C99.9414 59.457 100.547 59.3398 101.023 59.1055C101.5 58.8711 101.863 58.5234 102.113 58.0625C102.371 57.6016 102.523 57.0273 102.57 56.3398ZM115.016 59.1406V53.4922C115.016 53.0859 114.949 52.7383 114.816 52.4492C114.684 52.1523 114.477 51.9219 114.195 51.7578C113.922 51.5938 113.566 51.5117 113.129 51.5117C112.754 51.5117 112.43 51.5781 112.156 51.7109C111.883 51.8359 111.672 52.0195 111.523 52.2617C111.375 52.4961 111.301 52.7734 111.301 53.0938H107.926C107.926 52.5547 108.051 52.043 108.301 51.5586C108.551 51.0742 108.914 50.6484 109.391 50.2812C109.867 49.9062 110.434 49.6133 111.09 49.4023C111.754 49.1914 112.496 49.0859 113.316 49.0859C114.301 49.0859 115.176 49.25 115.941 49.5781C116.707 49.9062 117.309 50.3984 117.746 51.0547C118.191 51.7109 118.414 52.5312 118.414 53.5156V58.9414C118.414 59.6367 118.457 60.207 118.543 60.6523C118.629 61.0898 118.754 61.4727 118.918 61.8008V62H115.508C115.344 61.6562 115.219 61.2266 115.133 60.7109C115.055 60.1875 115.016 59.6641 115.016 59.1406ZM115.461 54.2773L115.484 56.1875H113.598C113.152 56.1875 112.766 56.2383 112.438 56.3398C112.109 56.4414 111.84 56.5859 111.629 56.7734C111.418 56.9531 111.262 57.1641 111.16 57.4062C111.066 57.6484 111.02 57.9141 111.02 58.2031C111.02 58.4922 111.086 58.7539 111.219 58.9883C111.352 59.2148 111.543 59.3945 111.793 59.5273C112.043 59.6523 112.336 59.7148 112.672 59.7148C113.18 59.7148 113.621 59.6133 113.996 59.4102C114.371 59.207 114.66 58.957 114.863 58.6602C115.074 58.3633 115.184 58.082 115.191 57.8164L116.082 59.2461C115.957 59.5664 115.785 59.8984 115.566 60.2422C115.355 60.5859 115.086 60.9102 114.758 61.2148C114.43 61.5117 114.035 61.7578 113.574 61.9531C113.113 62.1406 112.566 62.2344 111.934 62.2344C111.129 62.2344 110.398 62.0742 109.742 61.7539C109.094 61.4258 108.578 60.9766 108.195 60.4062C107.82 59.8281 107.633 59.1719 107.633 58.4375C107.633 57.7734 107.758 57.1836 108.008 56.668C108.258 56.1523 108.625 55.7188 109.109 55.3672C109.602 55.0078 110.215 54.7383 110.949 54.5586C111.684 54.3711 112.535 54.2773 113.504 54.2773H115.461ZM124.578 44V62H121.191V44H124.578ZM132.605 59.5977C133.02 59.5977 133.387 59.5195 133.707 59.3633C134.027 59.1992 134.277 58.9727 134.457 58.6836C134.645 58.3867 134.742 58.0391 134.75 57.6406H137.926C137.918 58.5312 137.68 59.3242 137.211 60.0195C136.742 60.707 136.113 61.25 135.324 61.6484C134.535 62.0391 133.652 62.2344 132.676 62.2344C131.691 62.2344 130.832 62.0703 130.098 61.7422C129.371 61.4141 128.766 60.9609 128.281 60.3828C127.797 59.7969 127.434 59.1172 127.191 58.3438C126.949 57.5625 126.828 56.7266 126.828 55.8359V55.4961C126.828 54.5977 126.949 53.7617 127.191 52.9883C127.434 52.207 127.797 51.5273 128.281 50.9492C128.766 50.3633 129.371 49.9062 130.098 49.5781C130.824 49.25 131.676 49.0859 132.652 49.0859C133.691 49.0859 134.602 49.2852 135.383 49.6836C136.172 50.082 136.789 50.6523 137.234 51.3945C137.688 52.1289 137.918 53 137.926 54.0078H134.75C134.742 53.5859 134.652 53.2031 134.48 52.8594C134.316 52.5156 134.074 52.2422 133.754 52.0391C133.441 51.8281 133.055 51.7227 132.594 51.7227C132.102 51.7227 131.699 51.8281 131.387 52.0391C131.074 52.2422 130.832 52.5234 130.66 52.8828C130.488 53.2344 130.367 53.6367 130.297 54.0898C130.234 54.5352 130.203 55.0039 130.203 55.4961V55.8359C130.203 56.3281 130.234 56.8008 130.297 57.2539C130.359 57.707 130.477 58.1094 130.648 58.4609C130.828 58.8125 131.074 59.0898 131.387 59.293C131.699 59.4961 132.105 59.5977 132.605 59.5977Z" fill="white"/>
<path fill-rule="evenodd" clip-rule="evenodd" d="M69 40C80.0457 40 89 31.0457 89 20C89 8.95431 80.0457 0 69 0C57.9543 0 49 8.95431 49 20C49 31.0457 57.9543 40 69 40ZM75.2393 9.31684C75.543 8.23805 74.4961 7.60013 73.54 8.2813L60.1931 17.7896C59.1562 18.5283 59.3193 20 60.4381 20H63.9527V19.9728H70.8025L65.2212 21.9421L62.7607 30.6832C62.457 31.762 63.5038 32.3999 64.46 31.7187L77.8069 22.2105C78.8438 21.4718 78.6806 20 77.5619 20H72.2321L75.2393 9.31684Z" fill="#66ED83"/>
</svg>
